HIERARCHY
ROOT Hips
{
 OFFSET 0.000000 0.000000 0.000000
 CHANNELS 6 Xposition Yposition Zposition Yrotation Xrotation Zrotation
 JOINT Chest
 {
  OFFSET 0.000000 9.585900 0.002600
  CHANNELS 3 Yrotation Xrotation Zrotation
  JOINT Chest2
  {
   OFFSET 0.000000 9.601200 -0.005300
   CHANNELS 3 Yrotation Xrotation Zrotation
   JOINT Chest3
   {
    OFFSET 0.000000 9.561800 0.000000
    CHANNELS 3 Yrotation Xrotation Zrotation
    JOINT Chest4
    {
     OFFSET 0.000000 9.552100 0.000000
     CHANNELS 3 Yrotation Xrotation Zrotation
     JOINT Neck
     {
      OFFSET 0.000000 14.453000 0.000000
      CHANNELS 3 Yrotation Xrotation Zrotation
      JOINT Head
      {
       OFFSET 0.000000 8.936500 -0.011300
       CHANNELS 3 Yrotation Xrotation Zrotation
       End Site
       {
        OFFSET 0.000000 17.073600 -0.006000
       }
      }
     }
     JOINT RightCollar
     {
      OFFSET -2.921100 9.558500 0.000000
      CHANNELS 3 Yrotation Xrotation Zrotation
      JOINT RightShoulder
      {
       OFFSET -13.519700 0.000000 0.000000
       CHANNELS 3 Yrotation Xrotation Zrotation
       JOINT RightElbow
       {
        OFFSET 0.000000 -29.696600 0.000000
        CHANNELS 3 Yrotation Xrotation Zrotation
        JOINT RightWrist
        {
         OFFSET 0.000000 -24.004700 0.000000
         CHANNELS 3 Yrotation Xrotation Zrotation
         End Site
         {
          OFFSET 0.000000 -17.728500 0.000000
         }
        }
       }
      }
     }
     JOINT LeftCollar
     {
      OFFSET 2.921100 9.558500 0.000000
      CHANNELS 3 Yrotation Xrotation Zrotation
      JOINT LeftShoulder
      {
       OFFSET 13.519700 0.000000 0.000000
       CHANNELS 3 Yrotation Xrotation Zrotation
       JOINT LeftElbow
       {
        OFFSET 0.000000 -29.696600 0.000000
        CHANNELS 3 Yrotation Xrotation Zrotation
        JOINT LeftWrist
        {
         OFFSET 0.000000 -24.004700 0.000000
         CHANNELS 3 Yrotation Xrotation Zrotation
         End Site
         {
          OFFSET 0.000000 -17.728500 0.000000
         }
        }
       }
      }
     }
    }
   }
  }
 }
 JOINT RightHip
 {
  OFFSET -7.771700 -0.012900 -0.001300
  CHANNELS 3 Yrotation Xrotation Zrotation
  JOINT RightKnee
  {
   OFFSET 0.000000 -40.869800 0.001200
   CHANNELS 3 Yrotation Xrotation Zrotation
   JOINT RightAnkle
   {
    OFFSET 0.000000 -39.717900 0.002100
    CHANNELS 3 Yrotation Xrotation Zrotation
    JOINT RightToe
    {
     OFFSET 0.000000 -4.965400 11.033500
     CHANNELS 3 Yrotation Xrotation Zrotation
     End Site
     {
      OFFSET 0.000000 -1.423100 5.872300
     }
    }
   }
  }
 }
 JOINT LeftHip
 {
  OFFSET 7.771700 -0.012900 -0.001300
  CHANNELS 3 Yrotation Xrotation Zrotation
  JOINT LeftKnee
  {
   OFFSET 0.000000 -40.869800 0.001200
   CHANNELS 3 Yrotation Xrotation Zrotation
   JOINT LeftAnkle
   {
    OFFSET 0.000000 -39.717900 0.002100
    CHANNELS 3 Yrotation Xrotation Zrotation
    JOINT LeftToe
    {
     OFFSET 0.000000 -4.965400 11.033500
     CHANNELS 3 Yrotation Xrotation Zrotation
     End Site
     {
      OFFSET 0.000000 -1.423100 5.872300
     }
    }
   }
  }
 }
}
MOTION
Frames: 7
Frame Time: 0.008333
0.000000 85.388000 0.000000 0.000000 -5.767877 0.000000 0.000000 11.653817 0.000000 0.000000 -5.885947 0.000000 0.000000 -0.000000 0.000000 0.000000 -0.000000 0.000000 0.000000 12.528835 0.000000 0.000000 0.711642 0.000000 0.000000 -0.000000 0.000000 0.000000 0.000000 -90.000000 0.000000 -2.309062 0.000000 0.000000 2.309062 0.000000 0.000000 -0.000000 0.000000 0.000000 -0.000000 90.000000 0.000000 -2.309062 0.000000 0.000000 2.309062 0.000000 0.000000 8.520406 0.000000 0.000000 1.905762 0.000000 -0.000000 -4.658285 0.000000 0.000000 -0.000000 0.000000 0.000000 8.520406 0.000000 0.000000 1.905762 0.000000 -0.000000 -4.658285 0.000000 0.000000 -0.000000 0.000000
-53.996768 56.416008 -21.008826 -177.187200 -12.689178 -0.433026 -1.086984 14.674051 -0.533831 -0.033995 1.350389 0.042211 -0.043791 2.242137 0.066007 -0.294126 13.325425 0.382962 2.362855 16.600808 3.309378 1.738201 -8.223248 2.964761 -4.792392 1.213388 1.154012 -8.537462 -6.415349 -2.360335 -75.433285 -17.503358 106.209775 -39.519041 -5.531580 5.414265 -4.641158 -0.092398 2.909869 18.621435 -10.643530 0.152732 70.210676 -25.053183 -106.180666 25.395146 -23.797765 0.397927 -2.462957 -62.794247 10.562624 -28.545227 84.695547 -32.663735 -11.118050 -18.589175 13.477119 0.410550 0.209928 -0.258093 17.953829 -56.929846 -21.885844 68.521919 71.692881 69.560026 -6.890645 -15.022240 0.901018 -0.020863 0.764974 -0.006588
-53.997077 56.409865 -21.009679 -177.181498 -12.702522 -0.412727 -1.086247 14.657518 -0.555236 -0.025039 1.325663 0.038697 -0.049741 2.263378 0.066535 -0.278520 13.309589 0.371752 2.358563 16.496920 3.383604 1.721213 -8.343949 3.038060 -4.803405 1.228892 1.162453 -8.498557 -6.404091 -2.358264 -75.369405 -17.529728 106.184321 -39.470395 -5.502105 5.407570 -4.640170 -0.079551 2.927333 18.606998 -10.619437 0.126618 70.287700 -25.333788 -106.195676 25.276825 -23.656123 0.494164 -2.444816 -62.778476 10.528662 -28.654775 84.703889 -32.777275 -11.145920 -18.668120 13.579698 0.419773 0.157569 -0.236758 17.994030 -56.907205 -21.924543 68.521736 71.676718 69.555529 -6.914207 -15.018886 0.911927 -0.021986 0.766947 -0.006925
-53.994114 56.402950 -21.009752 -177.192657 -12.713263 -0.404565 -1.056040 14.616025 -0.561108 -0.041798 1.370271 0.042793 -0.036718 2.238536 0.061968 -0.279787 13.323447 0.371011 2.369030 16.364447 3.445042 1.704378 -8.465118 3.114550 -4.810323 1.236884 1.167098 -8.379954 -6.449384 -2.360192 -75.360724 -17.552139 106.120959 -39.421764 -5.460764 5.400203 -4.624518 -0.096278 2.934171 18.614646 -10.599301 0.061453 70.329019 -25.640381 -106.199478 25.175376 -23.537008 0.577165 -2.497864 -62.763478 10.573404 -28.617046 84.716323 -32.772644 -11.123525 -18.729688 13.665860 0.425995 0.098463 -0.216103 18.034437 -56.891852 -21.939424 68.505631 71.680203 69.548020 -6.934420 -15.023749 0.902976 -0.006765 0.774385 0.007527
-53.989620 56.396155 -21.010950 -177.194087 -12.733461 -0.405374 -1.050830 14.628595 -0.560281 -0.030511 1.346478 0.039426 -0.035459 2.239597 0.061764 -0.279662 13.335266 0.369415 2.380956 16.233720 3.510131 1.689913 -8.585988 3.192664 -4.796727 1.208340 1.160242 -8.343777 -6.430745 -2.349670 -75.303432 -17.576673 106.087821 -39.372716 -5.413931 5.392894 -4.611862 -0.112906 2.939932 18.597525 -10.573854 0.038860 70.392208 -25.904500 -106.226837 25.083964 -23.439469 0.652421 -2.507210 -62.743482 10.578798 -28.785665 84.721920 -32.939930 -11.098499 -18.785413 13.739684 0.430637 0.089797 -0.239969 18.053953 -56.868407 -21.936175 68.483892 71.684733 69.537635 -6.965522 -15.034090 0.897001 0.017918 0.787479 0.019941
-53.985787 56.389500 -21.011506 -177.194813 -12.752757 -0.400607 -1.037721 14.619473 -0.564446 -0.018602 1.320922 0.036792 -0.046570 2.265819 0.063333 -0.240771 13.296086 0.350502 2.366669 16.152448 3.606155 1.679495 -8.706211 3.272384 -4.819268 1.228711 1.176382 -8.305123 -6.415509 -2.339664 -75.244840 -17.601005 106.052691 -39.324970 -5.370197 5.384768 -4.638960 -0.081897 2.967457 18.578513 -10.546549 0.018497 70.451119 -26.157550 -106.256831 24.994387 -23.357652 0.725722 -2.543163 -62.725555 10.602617 -29.116060 84.717700 -33.273010 -11.065835 -18.824679 13.762233 0.448003 0.071346 -0.222089 18.062928 -56.847000 -21.935561 68.474299 71.680141 69.527350 -6.979020 -15.042851 0.898562 0.021696 0.800502 0.022373
-53.981460 56.383105 -21.010679 -177.204900 -12.765824 -0.395886 -1.014081 14.597463 -0.565230 -0.023804 1.331192 0.035687 -0.044538 2.264031 0.061644 -0.232919 13.298680 0.345446 2.379193 16.031707 3.680256 1.673103 -8.825218 3.354170 -4.780186 1.175855 1.172854 -8.293206 -6.377033 -2.331018 -75.185602 -17.625167 106.018334 -39.280851 -5.327137 5.373277 -4.645229 -0.076963 2.978879 18.568919 -10.532240 0.008185 70.515279 -26.388120 -106.298749 24.904676 -23.281969 0.799343 -2.576093 -62.711778 10.635665 -29.232753 84.717242 -33.399185 -11.053692 -18.853812 13.789840 0.437071 0.011678 -0.164162 18.080031 -56.832502 -21.933514 68.460159 71.682795 69.513666 -6.990941 -15.053202 0.900766 0.030734 0.813303 0.023691
